<svg width="141" height="110" viewBox="0 0 141 110" fill="none" xmlns="http://www.w3.org/2000/svg">
<path d="M67.2577 35.4911L47.9906 12.0323C46.8277 10.617 47.0747 8.55999 48.5421 7.43916C50.0094 6.31829 52.1421 6.55576 53.3041 7.9719L67.39 25.1209L87.6832 1.62552C88.8815 0.238306 91.0194 0.0502133 92.4577 1.20596C93.8959 2.36171 94.0909 4.42384 92.8926 5.81107L67.2577 35.4911Z" fill="#082563"/>
<path d="M7.09716 109.688H58.5604C103.57 109.688 140.058 74.4935 140.058 31.0799C140.058 27.7667 137.273 25.0808 133.838 25.0808H7.09716C3.66215 25.0808 0.877441 27.7667 0.877441 31.0799V103.688C0.877441 107.002 3.66215 109.688 7.09716 109.688Z" fill="#082563"/>
<path d="M5.69531 66.8468C5.69531 43.629 24.517 24.8073 47.7347 24.8073H50.8258C74.0436 24.8073 92.8653 43.629 92.8653 66.8468C92.8653 90.0645 74.0436 108.886 50.8259 108.886H47.7348C24.517 108.886 5.69531 90.0645 5.69531 66.8468Z" fill="#FDC8BF"/>
<path d="M18.9565 67.1659C18.9565 43.9482 37.7782 25.1265 60.996 25.1265H64.0871C87.3048 25.1265 106.127 43.9482 106.127 67.1659C106.127 90.3837 87.3048 109.205 64.0871 109.205H60.996C37.7783 109.205 18.9565 90.3837 18.9565 67.1659Z" fill="#FDAD9F"/>
<path d="M35.167 67.1659C35.167 43.9482 53.9887 25.1265 77.2064 25.1265H80.2975C103.515 25.1265 122.337 43.9482 122.337 67.1659C122.337 90.3837 103.515 109.205 80.2975 109.205H77.2064C53.9887 109.205 35.167 90.3837 35.167 67.1659Z" fill="#FC917F"/>
<path d="M133.422 44.8734C137.77 50.6657 139.615 57.2555 139.984 64.287C140.611 76.2172 137.284 86.9355 128.871 95.8478C119.438 105.84 107.472 110.192 93.5705 109.641C86.1685 109.348 79.1185 107.492 72.3561 104.605C71.682 104.317 71.0661 104.09 70.2667 104.211C61.5578 105.535 53.4932 103.69 45.6729 99.4717C50.2232 96.0597 54.6349 92.7517 59.0476 89.4444C59.1941 89.367 59.3547 89.3066 59.4861 89.2104C69.6711 81.727 79.8552 74.2427 90.0358 66.7534C94.6108 63.3883 99.1584 59.9865 103.763 56.6597C104.906 55.8342 104.771 55.424 103.636 54.7542C101.76 53.6495 99.9923 52.3755 98.1455 51.224C97.2702 50.6785 97.242 50.378 98.1455 49.7636C100.841 47.9304 103.43 46.0929 105.514 43.441C110.516 37.0759 120.593 35.9363 128.043 40.4197C129.781 41.4657 131.078 42.9951 132.777 44.0597L132.758 44.0393C132.808 44.4444 133.023 44.727 133.422 44.8734ZM105.092 50.7491C105.337 50.9244 105.547 51.0887 105.771 51.2333C108.246 52.8393 110.991 54.0555 113.167 56.0938C122.495 64.8317 122.564 80.9023 113.232 90.081C105.916 97.2793 97.0152 99.4972 86.8743 97.6419C86.3052 97.538 85.684 97.1125 85.099 97.5951C83.1429 99.2112 80.952 100.501 78.7523 101.693C78.807 101.887 78.8079 101.977 78.8387 101.987C93.3728 106.924 107.305 106.615 120.07 97.3134C131.128 89.2555 135.638 78.2444 135.256 65.1253C135.237 64.4827 135.42 63.8938 134.242 64.0214C127.713 64.7295 123.037 61.9789 119.867 56.5933C119.116 55.3159 118.441 53.9985 117.468 52.8529C114.14 48.938 109.316 48.0878 105.092 50.7491Z" fill="#082563"/>
<path d="M132.777 44.0596C131.079 42.9949 129.782 41.4655 128.043 40.4196C120.593 35.9362 110.516 37.0758 105.514 43.4409C103.43 46.0928 100.841 47.9302 98.1457 49.7634C97.2422 50.3779 97.2704 50.6783 98.1457 51.2238C99.9925 52.3753 101.76 53.6494 103.636 54.7541C104.771 55.4238 104.906 55.834 103.764 56.6596C99.1587 59.9864 94.611 63.3881 90.036 66.7532C79.8554 74.2425 69.6713 81.7268 59.4864 89.2102C59.3549 89.3064 59.1943 89.3668 59.0478 89.4443C55.4972 83.9489 53.4802 77.9779 52.8122 71.5302C51.8355 62.0945 53.864 53.2902 59.0355 45.3038C66.6431 33.5549 77.6919 26.737 92.0354 25.3277C106.315 23.9251 118.438 28.5294 128.436 38.3558C130.138 40.0289 131.92 41.7438 132.777 44.0596Z" fill="#FB765F"/>
<path d="M133.422 44.8732C133.023 44.7268 132.808 44.4443 132.758 44.0392C133.267 44.1039 133.43 44.4256 133.422 44.8732Z" fill="#FB765F"/>
<path d="M105.092 50.7489C109.316 48.0877 114.14 48.9379 117.468 52.8528C118.442 53.9983 119.117 55.3158 119.867 56.5932C123.037 61.9787 127.713 64.7294 134.242 64.0213C135.421 63.8936 135.237 64.4826 135.256 65.1251C135.639 78.2443 131.128 89.2553 120.07 97.3132C107.305 106.615 93.373 106.923 78.8389 101.987C78.8081 101.977 78.8072 101.887 78.7524 101.693C80.9522 100.5 83.143 99.2111 85.0992 97.5949C85.6842 97.1124 86.3054 97.5379 86.8745 97.6417C97.0154 99.497 105.916 97.2792 113.232 90.0809C122.564 80.9022 122.495 64.8315 113.167 56.0936C110.991 54.0553 108.246 52.8392 105.771 51.2332C105.547 51.0885 105.337 50.9243 105.092 50.7489Z" fill="#FEF4EB"/>
</svg>
