<svg id="Layer_1" data-name="Layer 1" xmlns="http://www.w3.org/2000/svg" viewBox="0 0 1000 1000"><defs><style>.cls-1{fill:#212c60;}.cls-2{fill:#ee3849;}.cls-3{fill:#f26863;}.cls-4{fill:#fcd6cc;}</style></defs><path class="cls-1" d="M347.56,393.4q0-21.81-9.48-38.29A64.45,64.45,0,0,0,312,329.8,77.94,77.94,0,0,0,274.87,321q-21,0-38,9.22a68.15,68.15,0,0,0-26.74,25.7,71.36,71.36,0,0,0-9.73,37q0,20.78,9.86,37.13a67.55,67.55,0,0,0,28,25.57q18.17,9.21,41.8,9.21,37.9,0,57.63-22.58l-21.55-23.37a47,47,0,0,1-15.7,10.26,53.71,53.71,0,0,1-19.34,3.24q-15.84,0-26.48-7.53a32.86,32.86,0,0,1-13.5-20.51H346.78Q347.56,394.18,347.56,393.4Zm-107-12.72q2.07-13.5,11.42-21.29t23.11-7.79q13.49,0,22.84,7.92t11.42,21.16Zm201.19,50.88q-15.84,0-26.22-10.38t-10.38-28.3q0-17.91,10.38-28.3t26.22-10.38q20.5,0,31.42,19.21l31.41-16.87a54.63,54.63,0,0,0-24-26.35Q464.12,321,442.05,321q-22.32,0-40.11,9.22a68.93,68.93,0,0,0-27.77,25.57q-10,16.35-10,37.12t10,37.13a69,69,0,0,0,27.77,25.57q17.79,9.21,40.11,9.21,22.07,0,38.55-9.34a55.8,55.8,0,0,0,24-26l-31.41-17.14Q462.56,431.57,441.79,431.56Zm358.13-66.85q10,10.52,10,28.17t-10,28.17q-10,10.51-25.57,10.51t-25.71-10.51q-10.11-10.51-10.12-28.17t10.12-28.17q10.13-10.51,25.71-10.51T799.92,364.71Zm171.61,12.65L552.76,141.15a17.31,17.31,0,0,0-25.82,15.08V270.09h40.5v67.49a53.91,53.91,0,0,1,19.47-12.33A70.57,70.57,0,0,1,611.83,321q26,0,41.93,15.58t16,46.21v80h-40.5V389q0-16.62-7.27-24.8t-21-8.17q-15.31,0-24.4,9.47t-9.09,28.17v69.06h-40.5V628.65a17.31,17.31,0,0,0,25.82,15.08L971.53,407.52A17.32,17.32,0,0,0,971.53,377.36ZM841.07,430a68.78,68.78,0,0,1-27.26,25.57q-17.4,9.21-39.46,9.21t-39.59-9.21A68.42,68.42,0,0,1,707.37,430q-9.87-16.36-9.87-37.13t9.87-37.12a68.35,68.35,0,0,1,27.39-25.57Q752.28,321,774.35,321t39.46,9.22a68.71,68.71,0,0,1,27.26,25.57q9.85,16.35,9.86,37.12T841.07,430Z"/><path class="cls-2" d="M360.4,594.65A219.54,219.54,0,1,1,397,210l15.3-26.5a248.83,248.83,0,0,0-137.28-41c-138.08,0-250,111.93-250,250s111.92,250,250,250a248.89,248.89,0,0,0,129.47-36.09l-15.28-26.46A219.29,219.29,0,0,1,360.4,594.65Z"/><path class="cls-3" d="M275,552.44A160,160,0,1,1,367.16,261.6l15-26.05A189.11,189.11,0,0,0,275,202.44c-104.94,0-190,85.07-190,190s85.06,190,190,190a189.07,189.07,0,0,0,99.45-28.08l-15-26A158.88,158.88,0,0,1,275,552.44Z"/><path class="cls-4" d="M275,492.44A100,100,0,1,1,336.92,314l15.15-26.23a130,130,0,1,0-7.64,214.61l-15-26.05A99.35,99.35,0,0,1,275,492.44Z"/><path class="cls-1" d="M100.68,837.59l-.24-44.53-21.6,36.25H68.27l-21.48-35v43.33h-22v-84H44.39l29.52,48.49,28.81-48.49h19.57l.24,84Z"/><path class="cls-1" d="M206.79,819.23v18.36H139.33v-84h65.9v18.37H162.86V786.1h37.33v17.76H162.86v15.37Z"/><path class="cls-1" d="M220,753.57h39.73a55.6,55.6,0,0,1,24.48,5.16,38.92,38.92,0,0,1,16.57,14.65q5.88,9.48,5.88,22.2t-5.88,22.21a38.89,38.89,0,0,1-16.57,14.64,55.6,55.6,0,0,1-24.48,5.16H220Zm38.77,65.06q10.8,0,17.34-6.12t6.54-16.93q0-10.8-6.54-16.92t-17.34-6.13h-15v46.1Z"/><path class="cls-1" d="M319.14,753.57h23.77v84H319.14Z"/><path class="cls-1" d="M416.13,821.27H380.6L374,837.59H349.75l37.09-84h23.41l37.21,84H422.73Zm-7-17.53-10.8-26.88-10.8,26.88Z"/><path class="cls-1" d="M547.32,757.35a29.63,29.63,0,0,1,0,54.5,47.91,47.91,0,0,1-19.8,3.78H512.87v22H489.11v-84h38.41A47.91,47.91,0,0,1,547.32,757.35Zm-10.2,36.37q3.72-3.18,3.72-9.06t-3.72-9.12q-3.72-3.24-11-3.24H512.87v24.6h13.21Q533.4,796.9,537.12,793.72Z"/><path class="cls-1" d="M576.37,753.57h23.77v65.18h40.09v18.84H576.37Z"/><path class="cls-1" d="M706.84,821.27H671.31l-6.6,16.32H640.47l37.09-84H701l37.21,84H713.45Zm-7-17.53-10.8-26.88-10.8,26.88Z"/><path class="cls-1" d="M784.63,807.46v30.13H760.86V807.11l-32.05-53.54H753.9l19.92,33.37,19.93-33.37h23Z"/><path class="cls-1" d="M889.9,819.23v18.36H822.44v-84h65.9v18.37H846V786.1h37.33v17.76H846v15.37Z"/><path class="cls-1" d="M939.83,815.27h-13v22.32H903.1v-84h38.41a48,48,0,0,1,19.81,3.78,29.36,29.36,0,0,1,13,10.8,29.67,29.67,0,0,1,4.56,16.51,29.26,29.26,0,0,1-4.26,15.9,28.83,28.83,0,0,1-12.18,10.63l18.12,26.4H955.07Zm11.28-39.73q-3.72-3.24-11-3.24h-13.2v24.6h13.2q7.32,0,11-3.18t3.72-9.06Q954.83,778.78,951.11,775.54Z"/></svg>